<?xml version="1.0" encoding="utf-8"?>
<!-- Generator: Adobe Illustrator 16.0.0, SVG Export Plug-In . SVG Version: 6.00 Build 0)  -->
<!DOCTYPE svg PUBLIC "-//W3C//DTD SVG 1.1//EN" "http://www.w3.org/Graphics/SVG/1.1/DTD/svg11.dtd">
<svg version="1.1" xmlns="http://www.w3.org/2000/svg" xmlns:xlink="http://www.w3.org/1999/xlink" x="0px" y="0px" width="350px"
	 height="314px" viewBox="0 0 350 314" enable-background="new 0 0 350 314" xml:space="preserve">
<g id="Layer_2">
	<line fill="none" stroke="#333333" x1="47.333" y1="55.682" x2="41.673" y2="55.682"/>
	<line fill="none" stroke="#333333" x1="46.851" y1="130.01" x2="41.673" y2="130.01"/>
	<line fill="none" stroke="#333333" x1="46.851" y1="204.338" x2="41.673" y2="204.338"/>
	<line fill="none" stroke="#333333" x1="124.443" y1="278.784" x2="124.443" y2="283.962"/>
	<line fill="none" stroke="#333333" x1="46.982" y1="55.682" x2="46.982" y2="278.784"/>
	<line fill="none" stroke="#333333" x1="208" y1="279.067" x2="46.7" y2="279.067"/>
	<g>
		<text transform="matrix(1 0 0 1 36.1689 297.0957)" fill="#666666" font-family="'Helvetica'" font-size="12">0</text>
	</g>
	<text transform="matrix(1 0 0 1 120.9473 297.0957)" fill="#666666" font-family="'Helvetica'" font-size="12">A</text>
	<text transform="matrix(1 0 0 1 21.0762 207.25)" fill="#666666" font-family="'Helvetica'" font-size="12">0.1</text>
	<text transform="matrix(1 0 0 1 21.0762 132.917)" fill="#666666" font-family="'Helvetica'" font-size="12">0.2</text>
	<text transform="matrix(1 0 0 1 21.0762 58.917)" fill="#666666" font-family="'Helvetica'" font-size="12">0.3</text>
	<text transform="matrix(1 0 0 1 20.7178 34.6909)" fill="#333333" font-family="'Helvetica'" font-size="14">(Scale)</text>
	<text transform="matrix(1 0 0 1 209 99.0244)"><tspan x="0" y="0" fill="#333333" font-family="'Helvetica'" font-size="14">Density Plot</tspan><tspan x="0" y="16.8" fill="#333333" font-family="'Helvetica'" font-size="14">Width = Frequency</tspan></text>
	<text transform="matrix(1 0 0 1 209 168.6914)" fill="#333333" font-family="'Helvetica'" font-size="14">Median</text>
	<text transform="matrix(1 0 0 1 209 220.3574)" fill="#333333" font-family="'Helvetica'" font-size="14">Interquartile range</text>
	<text transform="matrix(1 0 0 1 209 46.6665)"><tspan x="0" y="0" fill="#333333" font-family="'Helvetica'" font-size="14">95% confidence </tspan><tspan x="0" y="16.8" fill="#333333" font-family="'Helvetica'" font-size="14">interval</tspan></text>
	<path fill="#B97DE4" stroke="#673787" stroke-miterlimit="10" d="M125.168,73.781c0,0-0.061,0.711,0.096,2.045
		c0.156,1.334,0.553,3.291,1.397,5.78c0.844,2.49,2.138,5.513,4.104,8.981c0.989,1.734,2.09,3.579,3.432,5.524
		c0.674,0.973,1.454,1.97,2.334,2.991c0.439,0.511,0.832,1.027,1.325,1.549c0.495,0.522,0.995,1.05,1.502,1.583
		c4.051,4.269,10.14,8.892,15.607,13.782c2.86,2.446,5.313,4.958,7.329,7.525c1.979,2.567,3.333,5.191,4.107,7.858
		c0.359,1.333,0.751,2.678,0.24,4.033c-0.496,1.354-1.584,2.719-3.429,4.092c-0.831,0.686-1.928,1.375-3.016,2.065
		c-1.197,0.69-2.399,1.383-3.604,2.076c-2.402,1.389-5.041,2.783-7.059,4.185c-2.094,1.4-3.552,2.807-4.37,4.216
		c-0.847,1.411-0.778,2.826-0.558,4.243c0.422,2.834,1.937,5.679,4.442,8.524c2.394,2.846,5.874,5.691,8.91,8.525
		c3.159,2.834,6.067,5.657,7.705,8.458c1.708,2.801,2.273,5.58,1.847,8.326c-0.379,2.746-1.413,5.457-2.988,8.125
		c-3.124,5.334-9.047,10.492-14.654,15.383c-1.417,1.221-2.705,2.43-4.004,3.617c-1.271,1.188-2.64,2.357-3.718,3.508
		c-0.56,0.576-1.149,1.145-1.668,1.711c-0.504,0.564-1.003,1.125-1.496,1.68c-1.019,1.109-1.837,2.199-2.637,3.268
		c-1.599,2.133-2.691,4.178-3.808,6.123c-0.513,0.973-1.015,1.92-1.502,2.842c-0.445,0.922-0.877,1.814-1.295,2.682
		c-1.597,3.469-2.664,6.492-3.355,8.982c-1.395,4.979-1.216,7.824-1.216,7.824c0.025,0.4-0.279,0.746-0.68,0.771
		c-0.4,0.025-0.746-0.279-0.771-0.68c-0.003-0.029-0.001-0.062,0-0.092c0,0,0.179-2.846-1.216-7.824
		c-0.691-2.49-1.758-5.514-3.355-8.982c-0.418-0.867-0.85-1.76-1.295-2.682c-0.487-0.922-0.989-1.869-1.502-2.842
		c-1.117-1.945-2.209-3.99-3.808-6.123c-0.8-1.068-1.618-2.158-2.637-3.268c-0.493-0.555-0.992-1.115-1.496-1.68
		c-0.519-0.566-1.108-1.135-1.668-1.711c-1.079-1.15-2.447-2.32-3.718-3.508c-1.299-1.188-2.587-2.396-4.004-3.617
		c-5.607-4.891-11.531-10.049-14.654-15.383c-1.576-2.668-2.61-5.379-2.989-8.125c-0.426-2.746,0.139-5.525,1.847-8.326
		c1.638-2.801,4.546-5.624,7.704-8.458c3.037-2.834,6.517-5.68,8.911-8.525c2.505-2.846,4.02-5.69,4.442-8.524
		c0.22-1.417,0.289-2.832-0.558-4.243c-0.818-1.409-2.276-2.816-4.37-4.216c-2.018-1.401-4.657-2.796-7.059-4.185
		c-1.205-0.693-2.406-1.386-3.604-2.076c-1.088-0.69-2.185-1.379-3.016-2.065c-1.845-1.373-2.933-2.738-3.429-4.092
		c-0.51-1.355-0.119-2.7,0.241-4.033c0.773-2.667,2.128-5.292,4.106-7.858c2.017-2.568,4.469-5.08,7.329-7.525
		c5.467-4.89,11.556-9.514,15.607-13.782c0.507-0.533,1.008-1.061,1.502-1.583c0.493-0.522,0.885-1.039,1.325-1.549
		c0.88-1.021,1.659-2.019,2.334-2.991c1.342-1.945,2.443-3.79,3.432-5.524c1.965-3.468,3.259-6.491,4.104-8.981
		c0.845-2.49,1.242-4.446,1.397-5.78c0.157-1.333,0.096-2.045,0.096-2.045c-0.034-0.401,0.264-0.753,0.663-0.788
		c0.401-0.034,0.754,0.263,0.788,0.664C125.171,73.697,125.171,73.741,125.168,73.781z"/>
	
		<line fill="none" stroke="#000000" stroke-linecap="round" stroke-miterlimit="10" x1="124.442" y1="85.25" x2="124.442" y2="239.098"/>
	<rect x="116.052" y="135.278" fill="#262626" width="16.781" height="59.096"/>
	<path fill="#FFFFFF" d="M130.101,164.829c0,3.122-2.535,5.655-5.658,5.655s-5.658-2.533-5.658-5.655
		c0-3.129,2.535-5.661,5.658-5.661S130.101,161.7,130.101,164.829z"/>
</g>
<g id="Layer_1">
	<g>
		<g>
			<polyline fill="none" stroke="#FF0000" stroke-width="1.5" points="145.91,124.251 167.624,102.537 202,102.537 			"/>
			<g>
				<g>
					<circle fill="#FFFFFF" cx="143.983" cy="126.178" r="3.384"/>
					<path fill="#FF0000" d="M146.694,128.889c1.495-1.495,1.495-3.927,0-5.422s-3.927-1.495-5.422,0s-1.495,3.927,0,5.422
						S145.199,130.383,146.694,128.889S145.199,130.383,146.694,128.889z M141.908,124.104c1.145-1.145,3.005-1.145,4.149,0
						c1.144,1.144,1.144,3.005,0,4.149c-1.145,1.144-3.005,1.144-4.149,0C140.764,127.108,140.764,125.248,141.908,124.104
						C143.053,122.959,140.764,125.248,141.908,124.104z"/>
				</g>
			</g>
		</g>
	</g>
	<g>
		<g>
			<polyline fill="none" stroke="#FF0000" stroke-width="1.5" points="124.644,184.176 156.402,215.934 202,215.934 			"/>
			<g>
				<g>
					<circle fill="#FFFFFF" cx="124.78" cy="184.312" r="3.384"/>
					<path fill="#FF0000" d="M127.491,181.601c-1.495-1.494-3.927-1.494-5.422,0s-1.495,3.928,0,5.422s3.927,1.494,5.422,0
						S128.985,183.095,127.491,181.601S128.985,183.095,127.491,181.601z M122.705,186.386c-1.144-1.145-1.144-3.004,0-4.148
						c1.145-1.145,3.005-1.145,4.149,0c1.144,1.144,1.144,3.004,0,4.148C125.71,187.53,123.85,187.53,122.705,186.386
						C121.561,185.241,123.85,187.53,122.705,186.386z"/>
				</g>
			</g>
		</g>
	</g>
	<g>
		<g>
			<polyline fill="none" stroke="#FF0000" stroke-width="1.5" points="127.018,103.954 181.305,49.667 202,49.667 			"/>
			<g>
				<g>
					<circle fill="#FFFFFF" cx="124.578" cy="106.394" r="3.384"/>
					<path fill="#FF0000" d="M127.289,109.104c1.495-1.495,1.495-3.927,0-5.422s-3.927-1.495-5.422,0s-1.495,3.927,0,5.422
						S125.794,110.599,127.289,109.104S125.794,110.599,127.289,109.104z M122.503,104.319c1.145-1.145,3.005-1.145,4.149,0
						c1.145,1.144,1.145,3.004,0,4.149c-1.144,1.144-3.004,1.144-4.149,0C121.359,107.324,121.359,105.463,122.503,104.319
						C123.647,103.175,121.359,105.463,122.503,104.319z"/>
				</g>
			</g>
		</g>
	</g>
	<g>
		<g>
			<line fill="none" stroke="#FF0000" stroke-width="1.5" x1="128.422" y1="164.828" x2="202" y2="164.828"/>
			<g>
				<g>
					<circle fill="#FFFFFF" cx="128.614" cy="164.828" r="3.384"/>
					<path fill="#FF0000" d="M128.614,168.662c2.114,0,3.833-1.721,3.833-3.834s-1.72-3.834-3.833-3.834s-3.834,1.721-3.834,3.834
						S126.5,168.662,128.614,168.662S126.5,168.662,128.614,168.662z M128.614,161.895c1.618,0,2.934,1.315,2.934,2.934
						s-1.316,2.934-2.934,2.934c-1.618,0-2.934-1.315-2.934-2.934S126.996,161.895,128.614,161.895
						C130.231,161.895,126.996,161.895,128.614,161.895z"/>
				</g>
			</g>
		</g>
	</g>
</g>
</svg>
